HIERARCHY
ROOT hip
{
  OFFSET 0 0 0
  CHANNELS 6 Xposition Yposition Zposition Zrotation Yrotation Xrotation
  JOINT abdomen
  {
    OFFSET 0 20.6881 -0.73152
    CHANNELS 3 Zrotation Xrotation Yrotation
    JOINT chest
    {
      OFFSET 0 11.7043 -0.48768
      CHANNELS 3 Zrotation Xrotation Yrotation
      JOINT neck
      {
        OFFSET 0 22.1894 -2.19456
        CHANNELS 3 Zrotation Xrotation Yrotation
        JOINT head
        {
          OFFSET -0.24384 7.07133 1.2192
          CHANNELS 3 Zrotation Xrotation Yrotation
          JOINT leftEye
          {
            OFFSET 4.14528 8.04674 8.04672
            CHANNELS 3 Zrotation Xrotation Yrotation
            End Site
            {
              OFFSET 1 0 0
            }
          }
          JOINT rightEye
          {
            OFFSET -3.6576 8.04674 8.04672
            CHANNELS 3 Zrotation Xrotation Yrotation
            End Site
            {
              OFFSET 1 0 0
            }
          }
        }
      }
      JOINT rCollar
      {
        OFFSET -2.68224 19.2634 -4.8768
        CHANNELS 3 Zrotation Xrotation Yrotation
        JOINT rShldr
        {
          OFFSET -8.77824 -1.95073 1.46304
          CHANNELS 3 Zrotation Xrotation Yrotation
          JOINT rForeArm
          {
            OFFSET -28.1742 -1.7115 0.48768
            CHANNELS 3 Zrotation Xrotation Yrotation
            JOINT rHand
            {
              OFFSET -22.5879 0.773209 7.07136
              CHANNELS 3 Zrotation Xrotation Yrotation
              JOINT rThumb1
              {
                OFFSET -1.2192 -0.487915 3.41376
                CHANNELS 3 Zrotation Xrotation Yrotation
                JOINT rThumb2
                {
                  OFFSET -3.37035 -0.52449 3.41376
                  CHANNELS 3 Zrotation Xrotation Yrotation
                  End Site
                  {
                    OFFSET -1.78271 -1.18214 1.43049
                  }
                }
              }
              JOINT rIndex1
              {
                OFFSET -7.75947 0.938293 5.60832
                CHANNELS 3 Zrotation Xrotation Yrotation
                JOINT rIndex2
                {
                  OFFSET -2.54057 -0.884171 1.56538
                  CHANNELS 3 Zrotation Xrotation Yrotation
                  End Site
                  {
                    OFFSET -1.62519 -0.234802 1.16502
                  }
                }
              }
              JOINT rMid1
              {
                OFFSET -8.24714 1.18213 3.41376
                CHANNELS 3 Zrotation Xrotation Yrotation
                JOINT rMid2
                {
                  OFFSET -3.10165 -0.590103 1.0647
                  CHANNELS 3 Zrotation Xrotation Yrotation
                  End Site
                  {
                    OFFSET -2.48547 -0.328903 0.83742
                  }
                }
              }
              JOINT rRing1
              {
                OFFSET -8.82822 0.546677 1.51678
                CHANNELS 3 Zrotation Xrotation Yrotation
                JOINT rRing2
                {
                  OFFSET -2.60934 -0.819778 -0.0198488
                  CHANNELS 3 Zrotation Xrotation Yrotation
                  End Site
                  {
                    OFFSET -2.33842 -0.294052 0.168128
                  }
                }
              }
              JOINT rPinky1
              {
                OFFSET -8.27202 -0.0477905 -0.4584
                CHANNELS 3 Zrotation Xrotation Yrotation
                JOINT rPinky2
                {
                  OFFSET -1.82734 -0.647385 -0.700984
                  CHANNELS 3 Zrotation Xrotation Yrotation
                  End Site
                  {
                    OFFSET -1.69225 -0.51767 -0.607171
                  }
                }
              }
            }
          }
        }
      }
      JOINT lCollar
      {
        OFFSET 2.68224 19.2634 -4.8768
        CHANNELS 3 Zrotation Xrotation Yrotation
        JOINT lShldr
        {
          OFFSET 8.77824 -1.95073 1.46304
          CHANNELS 3 Zrotation Xrotation Yrotation
          JOINT lForeArm
          {
            OFFSET 28.1742 -1.7115 0.48768
            CHANNELS 3 Zrotation Xrotation Yrotation
            JOINT lHand
            {
              OFFSET 22.5879 0.773209 7.07136
              CHANNELS 3 Zrotation Xrotation Yrotation
              JOINT lThumb1
              {
                OFFSET 1.2192 -0.487915 3.41376
                CHANNELS 3 Zrotation Xrotation Yrotation
                JOINT lThumb2
                {
                  OFFSET 3.37035 -0.52449 3.41376
                  CHANNELS 3 Zrotation Xrotation Yrotation
                  End Site
                  {
                    OFFSET 1.78271 -1.18214 1.43049
                  }
                }
              }
              JOINT lIndex1
              {
                OFFSET 7.75947 0.938293 5.60832
                CHANNELS 3 Zrotation Xrotation Yrotation
                JOINT lIndex2
                {
                  OFFSET 2.54057 -0.884171 1.56538
                  CHANNELS 3 Zrotation Xrotation Yrotation
                  End Site
                  {
                    OFFSET 1.62519 -0.234802 1.16502
                  }
                }
              }
              JOINT lMid1
              {
                OFFSET 8.24714 1.18213 3.41376
                CHANNELS 3 Zrotation Xrotation Yrotation
                JOINT lMid2
                {
                  OFFSET 3.10165 -0.590103 1.0647
                  CHANNELS 3 Zrotation Xrotation Yrotation
                  End Site
                  {
                    OFFSET 2.48547 -0.328903 0.83742
                  }
                }
              }
              JOINT lRing1
              {
                OFFSET 8.82822 0.546677 1.51678
                CHANNELS 3 Zrotation Xrotation Yrotation
                JOINT lRing2
                {
                  OFFSET 2.60934 -0.819778 -0.0198488
                  CHANNELS 3 Zrotation Xrotation Yrotation
                  End Site
                  {
                    OFFSET 2.33842 -0.294052 0.168128
                  }
                }
              }
              JOINT lPinky1
              {
                OFFSET 8.27202 -0.0477905 -0.4584
                CHANNELS 3 Zrotation Xrotation Yrotation
                JOINT lPinky2
                {
                  OFFSET 1.82734 -0.647385 -0.700984
                  CHANNELS 3 Zrotation Xrotation Yrotation
                  End Site
                  {
                    OFFSET 1.69225 -0.51767 -0.607171
                  }
                }
              }
            }
          }
        }
      }
    }
  }
  JOINT rButtock
  {
    OFFSET -8.77824 4.35084 1.2192
    CHANNELS 3 Zrotation Xrotation Yrotation
    JOINT rThigh
    {
      OFFSET 0 -1.70687 -2.19456
      CHANNELS 3 Zrotation Xrotation Yrotation
      JOINT rShin
      {
        OFFSET 0 -36.8199 0.73152
        CHANNELS 3 Zrotation Xrotation Yrotation
        JOINT rFoot
        {
          OFFSET 0.73152 -45.1104 -5.12064
          CHANNELS 3 Zrotation Xrotation Yrotation
          End Site
          {
            OFFSET -1.1221 -3.69964 12.103
          }
        }
      }
    }
  }
  JOINT lButtock
  {
    OFFSET 8.77824 4.35084 1.2192
    CHANNELS 3 Zrotation Xrotation Yrotation
    JOINT lThigh
    {
      OFFSET 0 -1.70687 -2.19456
      CHANNELS 3 Zrotation Xrotation Yrotation
      JOINT lShin
      {
        OFFSET 0 -36.8199 0.73152
        CHANNELS 3 Zrotation Xrotation Yrotation
        JOINT lFoot
        {
          OFFSET -0.73152 -45.1104 -5.12064
          CHANNELS 3 Zrotation Xrotation Yrotation
          End Site
          {
            OFFSET 1.1221 -3.69964 12.103
          }
        }
      }
    }
  }
}
MOTION
Frames:	4
Frame Time:	0.03333
0.3203106323901807 19.276957300195583 -0.3861414897146445 -1.4504210948944092 12.36979866027832 8.400785446166992 -2.8549063205718994 15.386099815368652 4.744103908538818 3.4834072589874268 -11.728052139282227 1.5789997577667236 -6.159368991851807 15.484970092773438 -4.415241718292236 9.090555191040039 -29.37373161315918 -3.3271665573120117 -0.2267204076051712 0.3165223002433777 0.07523132860660553 0.07389277219772339 -0.6164319515228271 0.6797459721565247 0.918993353843689 0.3160424828529358 0.24215535819530487 46.61112594604492 32.578182220458984 13.693556785583496 -28.86563491821289 -30.64967918395996 65.1915054321289 -1.3283956050872803 -11.002586364746094 -1.9400088787078857 -0.20980429649353027 -0.16751570999622345 -0.02430105209350586 0.22555969655513763 -0.17653366923332214 -1.0080907344818115 -0.2290915995836258 -0.3461257517337799 -0.514710545539856 10.148427963256836 7.622505187988281 0.873189389705658 -0.35649117827415466 0.246663436293602 -0.8814995288848877 3.3592569828033447 1.0407620668411255 0.7675397396087646 0.09968152642250061 0.7613378763198853 -0.882623016834259 11.224349975585938 1.2570298910140991 -0.5821834802627563 -0.27706241607666016 -0.68425452709198 0.16942910850048065 3.4455106258392334 -0.8819723129272461 -0.21512123942375183 -1.2938801050186157 0.5382936596870422 0.9217010140419006 -47.965553283691406 42.98910903930664 -32.10428237915039 31.602237701416016 -29.880970001220703 -60.92399978637695 2.1678194999694824 -11.137309074401855 3.453437089920044 1.0973619222640991 0.9231809377670288 0.9243373274803162 0.08067253232002258 -0.05855562165379524 0.9293382167816162 -0.02788393944501877 0.8274917006492615 0.3745223879814148 -8.170202255249023 5.524540424346924 0.18503817915916443 0.30787408351898193 0.03777601942420006 0.5553968548774719 -4.268730163574219 0.23022767901420593 0.42116668820381165 0.16862444579601288 -0.8638611435890198 0.5820471048355103 -10.966049194335938 0.48104095458984375 -0.537262499332428 -0.4783283770084381 0.7621093988418579 0.1080760657787323 -3.149259328842163 -1.579245924949646 0.8680558800697327 -0.004786808043718338 -1.1257096529006958 0.6310911178588867 -28.457275390625 -36.859500885009766 -24.559001922607422 0.39362990856170654 64.96086120605469 1.8118138313293457 -5.399405002593994 -12.298014640808105 -7.989678382873535 -0.6822370886802673 0.21697337925434113 0.6838582754135132 35.0357780456543 -37.853981018066406 28.673227310180664 3.9104785919189453 67.07440948486328 -5.2708353996276855 5.854945182800293 -12.176813125610352 16.50713539123535
0.15657029397405348 37.41388089583517 -0.18224034601014313 -3.370495557785034 8.4743070602417 5.666336536407471 -2.744635820388794 15.3978853225708 3.891470193862915 2.5832369327545166 -10.41374397277832 1.2718156576156616 -4.958916664123535 16.01973533630371 -3.4901628494262695 9.27196979522705 -26.629140853881836 -3.9440104961395264 0.2648383677005768 0.05443629249930382 0.17061284184455872 -0.10669752955436707 0.1334039866924286 -0.017415933310985565 -0.11801380664110184 -0.27809542417526245 -0.09500380605459213 45.18009948730469 35.50507354736328 16.67461395263672 -28.89527130126953 -32.374446868896484 65.64867401123047 -1.8264174461364746 -10.27160358428955 -1.6565923690795898 0.10575740784406662 -0.0043831197544932365 0.16823475062847137 -0.1798914074897766 0.05436882749199867 0.3674566447734833 0.14717459678649902 0.31133514642715454 0.22771912813186646 8.05886459350586 5.476869583129883 0.39997056126594543 0.13317127525806427 0.08698374778032303 0.06394676119089127 2.9769625663757324 0.9946438074111938 0.13092288374900818 -0.21540871262550354 -0.15543504059314728 0.061657000333070755 10.916667938232422 0.8603053689002991 0.09536810219287872 0.25152871012687683 0.11957702040672302 -0.001015988178551197 2.311326265335083 -0.8156752586364746 -0.2117796689271927 0.11486052721738815 -0.029350342229008675 -0.12986895442008972 -50.312110900878906 39.8582649230957 -30.762935638427734 28.33195686340332 -31.030832290649414 -61.070411682128906 1.8849951028823853 -12.83914852142334 2.1250128746032715 -0.21784543991088867 -0.27917635440826416 -0.1691528707742691 0.0009728642762638628 -0.002096142154186964 -0.22253155708312988 0.004692509770393372 -0.19802984595298767 -0.13815389573574066 -8.382013320922852 6.22268009185791 -0.7348970174789429 0.03729228675365448 -0.07447127252817154 -0.11658218502998352 -3.045767068862915 1.254801869392395 -0.2133670598268509 -0.0744108185172081 0.11896704137325287 -0.03302784636616707 -10.691864967346191 0.927128255367279 0.01193910837173462 0.22484757006168365 -0.18334876000881195 0.16272956132888794 -2.229921817779541 -0.5805835723876953 0.08800116181373596 -0.09378708153963089 0.2090596705675125 -0.10545244067907333 -29.181934356689453 -38.55173873901367 -25.34803009033203 -2.7107656002044678 66.36102294921875 3.7567055225372314 -4.828477382659912 -10.708795547485352 -9.35030746459961 0.08207742869853973 8.575524407206103e-05 -0.1550833284854889 33.92806625366211 -37.43521499633789 27.83840560913086 2.2641425132751465 67.1661605834961 -3.4119644165039062 5.189798355102539 -10.746729850769043 13.452658653259277
0.44016497767656615 35.794176666247516 0.7533749747540707 -1.7990604639053345 2.2759907245635986 5.055096626281738 -2.802114486694336 13.888397216796875 2.8787569999694824 3.0651803016662598 -9.192503929138184 0.8694353699684143 -5.60023832321167 15.246627807617188 -3.4800069332122803 8.49260139465332 -24.452730178833008 -6.913837909698486 0.6403800845146179 -0.047585807740688324 0.21802841126918793 -0.14329539239406586 -0.22578495740890503 0.25264665484428406 0.2837432622909546 -0.003627591533586383 -0.16233563423156738 50.198585510253906 35.58415222167969 15.104783058166504 -27.48562240600586 -29.403873443603516 57.611358642578125 -1.5416194200515747 -9.247004508972168 -1.268835425376892 -0.15791170299053192 0.18776361644268036 0.19229279458522797 0.24839067459106445 0.0667303055524826 0.03701188415288925 0.24191109836101532 -0.14702680706977844 0.5490032434463501 7.6028547286987305 5.5405659675598145 0.06265523284673691 -0.3032153844833374 0.10327271372079849 -0.49314337968826294 2.566823959350586 1.315862774848938 -0.19761748611927032 0.19281157851219177 0.4641469120979309 -0.5272980332374573 10.53637981414795 1.0083214044570923 -0.1631387323141098 -0.24634046852588654 -0.28951138257980347 0.04579418897628784 2.2739644050598145 -0.2108553797006607 -0.3159864544868469 -0.3990842401981354 -0.05733522027730942 0.08044914901256561 -55.658599853515625 38.1776008605957 -26.073957443237305 25.984315872192383 -27.8829345703125 -54.22808074951172 1.9278918504714966 -11.10197925567627 1.3779075145721436 0.2049965262413025 0.26901888847351074 0.3020947575569153 0.20561866462230682 -0.559715747833252 0.21493643522262573 -0.41501933336257935 0.08950606733560562 -0.10380088537931442 -6.648400783538818 5.266087055206299 -0.3234490156173706 0.1127944216132164 0.17087019979953766 0.03320176526904106 -2.491241931915283 1.2115199565887451 -0.16397644579410553 -0.4879119098186493 -0.23118852078914642 0.10524487495422363 -10.013449668884277 0.5839133262634277 0.05009528249502182 0.004195458721369505 -0.12212599068880081 0.41277939081192017 -1.6532158851623535 -0.8982197642326355 -0.30667462944984436 -0.2651481330394745 0.18053719401359558 -0.06487774848937988 -26.833110809326172 -39.95063018798828 -21.791234970092773 -1.667983889579773 64.1607894897461 2.1991560459136963 -4.088801383972168 -10.128817558288574 -9.801377296447754 -0.6992363333702087 0.499587744474411 -0.37610092759132385 28.795047760009766 -34.23381805419922 22.34308624267578 0.9402271509170532 62.038291931152344 -2.6530215740203857 5.4070258140563965 -10.300664901733398 14.90170955657959
0.4715645312298784 36.98382828002907 1.0706506019143858 0.023972028866410255 -4.556441783905029 6.16156005859375 -5.280480861663818 13.670851707458496 2.5491883754730225 3.019071578979492 -8.436904907226562 0.6725783348083496 -5.941952228546143 15.087965965270996 -4.658874988555908 7.699882507324219 -25.61086082458496 -8.258890151977539 0.7464012503623962 0.049293115735054016 -0.13566747307777405 -0.131663978099823 -0.19883103668689728 0.29096153378486633 0.26754823327064514 0.27176976203918457 -0.510428249835968 53.59677505493164 36.348663330078125 12.991386413574219 -24.779001235961914 -21.042980194091797 49.483768463134766 -0.9797849059104919 -5.792328357696533 -1.3535932302474976 0.33751532435417175 0.42367175221443176 -0.07571128010749817 -0.045502472668886185 0.05762398988008499 0.1361449658870697 0.125297412276268 0.2637711465358734 0.40784284472465515 8.183937072753906 6.08854866027832 0.16937991976737976 -0.06053830310702324 0.6415536403656006 -0.7802327871322632 2.4951536655426025 0.8440156579017639 -0.28479906916618347 -0.45993098616600037 -0.050778575241565704 -0.2516058683395386 10.482809066772461 0.7251158952713013 -0.06272540241479874 -0.09112038463354111 0.2309020757675171 0.2050427943468094 2.52500057220459 -0.739997148513794 -0.22427666187286377 -1.0342373847961426 -0.16120915114879608 0.534983217716217 -58.65419006347656 36.004051208496094 -26.158430099487305 22.55451774597168 -20.27766227722168 -42.97073745727539 0.8487492203712463 0.7876928448677063 -0.4993952810764313 0.5306874513626099 0.06214572489261627 0.3181611895561218 -0.2771543264389038 0.19335901737213135 0.4260711371898651 0.03368566557765007 -0.36340582370758057 0.16587068140506744 -7.601997375488281 5.402118682861328 -0.5744738578796387 0.24322131276130676 0.23512378334999084 -0.6249175667762756 -2.808649778366089 1.4828647375106812 -0.7560910582542419 -0.11099524050951004 -0.6566410660743713 -0.20627611875534058 -10.767339706420898 0.8010690212249756 0.3752099871635437 -0.00881839171051979 -0.3477763831615448 0.11772701144218445 -1.474002718925476 -0.8807483911514282 -0.10441409051418304 0.1122741773724556 0.03228919953107834 0.27714455127716064 -19.663480758666992 -43.13823318481445 -14.997706413269043 -1.8811291456222534 62.70247268676758 2.6356570720672607 -3.440286636352539 -9.459127426147461 -9.49783706665039 -0.16686290502548218 0.8494333028793335 -0.7316980957984924 17.629728317260742 -29.943445205688477 12.839385986328125 -0.6727272868156433 55.2243766784668 -0.33077555894851685 5.9299187660217285 -9.689414978027344 19.488943099975586
